#Comment line ignore any data following # character 
#Hierarchical Translation and Rotation (.htr) file 
[Header]	
#Header keywords are followed by a single value 
FileType HTR		#Single word string
DataType HTRS		#Translation followed by rotation and scale data
FileVersion 1		#integer
NumSegments 84		#integer
NumFrames 2		#integer
DataFrameRate 30		#integer, data frame rate in this file
EulerRotationOrder ZYX
CalibrationUnits mm
RotationUnits Degrees
GlobalAxisofGravity Y
BoneLengthAxis Y
ScaleFactor 1.00
[SegmentNames&Hierarchy]
#CHILD	PARENT
MASTER GLOBAL
root MASTER
chest root
L_mid_tent01 root
R_mid_tent01 root
spine01 root
Bip01_Neck chest
L_humerus chest
R_humerus chest
weapon_bone chest
Bip01_Head Bip01_Neck
eye_left_bone Bip01_Head
eye_right_bone Bip01_Head
L_forearm L_humerus
L_front_hand L_forearm
L_weapon_bone L_forearm
L_front_hand01_01 L_front_hand
L_front_hand02_01 L_front_hand
L_front_hand03_01 L_front_hand
L_front_hand01_02 L_front_hand01_01
L_front_hand02_02 L_front_hand02_01
L_front_hand03_02 L_front_hand03_01
R_forearm R_humerus
R_front_hand R_forearm
R_weapon_bone R_forearm
R_front_hand01_01 R_front_hand
R_front_hand02_01 R_front_hand
R_front_hand03_01 R_front_hand
R_front_hand01_02 R_front_hand01_01
R_front_hand02_02 R_front_hand02_01
R_front_hand03_02 R_front_hand03_01
null_rope01_connect L_mid_tent01
Rope1_Seg01 null_rope01_connect
Rope1_Seg02 Rope1_Seg01
Rope1_Seg03 Rope1_Seg02
Rope1_Seg04 Rope1_Seg03
Rope1_Seg05 Rope1_Seg04
Rope1_Seg06 Rope1_Seg05
Rope1_Seg07 Rope1_Seg06
Rope1_Seg09 Rope1_Seg07
L_mid_hand01 Rope1_Seg09
L_mid_hand02 Rope1_Seg09
L_mid_hand03 Rope1_Seg09
null_rope02_connect R_mid_tent01
Rope2_Seg01 null_rope02_connect
Rope2_Seg02 Rope2_Seg01
Rope2_Seg03 Rope2_Seg02
Rope2_Seg04 Rope2_Seg03
Rope2_Seg05 Rope2_Seg04
Rope2_Seg06 Rope2_Seg05
Rope2_Seg07 Rope2_Seg06
Rope2_Seg09 Rope2_Seg07
R_mid_hand01 Rope2_Seg09
R_mid_hand02 Rope2_Seg09
R_mid_hand03 Rope2_Seg09
spine02 spine01
spine03 spine02
pelvis spine03
null_rope03_connect pelvis
null_rope04_connect pelvis
Rope3_Seg01 null_rope03_connect
Rope3_Seg02 Rope3_Seg01
Rope3_Seg03 Rope3_Seg02
Rope3_Seg04 Rope3_Seg03
Rope3_Seg05 Rope3_Seg04
Rope3_Seg06 Rope3_Seg05
Rope3_Seg07 Rope3_Seg06
Rope3_Seg08 Rope3_Seg07
Rope3_Seg09 Rope3_Seg08
R_rear_hand01 Rope3_Seg09
R_rear_hand02 Rope3_Seg09
R_rear_hand03 Rope3_Seg09
Rope4_Seg01 null_rope04_connect
Rope4_Seg02 Rope4_Seg01
Rope4_Seg03 Rope4_Seg02
Rope4_Seg04 Rope4_Seg03
Rope4_Seg05 Rope4_Seg04
Rope4_Seg06 Rope4_Seg05
Rope4_Seg07 Rope4_Seg06
Rope4_Seg08 Rope4_Seg07
Rope4_Seg09 Rope4_Seg08
L_rear_hand01 Rope4_Seg09
L_rear_hand02 Rope4_Seg09
L_rear_hand03 Rope4_Seg09
[BasePosition]
#SegmentName Tx, Ty, Tz, Rx, Ry, Rz, BoneLength
MASTER 0.000000 0.000000 0.000000 -90.000000 0.000000 0.000000 10.000000 
root 0.000000 0.000000 0.000000 0.000000 0.000000 0.000000 10.000000 
chest 0.000000 0.000000 0.000000 0.000000 0.000000 0.000000 10.000000 
L_mid_tent01 0.000000 0.000000 0.000000 0.000000 0.000000 0.000000 10.000000 
R_mid_tent01 0.000000 0.000000 0.000000 0.000000 0.000000 0.000000 10.000000 
spine01 0.000000 0.000000 0.000000 0.000000 0.000000 0.000000 10.000000 
Bip01_Neck 0.000000 0.000000 0.000000 0.000000 0.000000 0.000000 10.000000 
L_humerus 0.000000 0.000000 0.000000 0.000000 0.000000 0.000000 10.000000 
R_humerus 0.000000 0.000000 0.000000 0.000000 0.000000 0.000000 10.000000 
weapon_bone 0.000000 0.000000 0.000000 0.000000 0.000000 0.000000 10.000000 
Bip01_Head 0.000000 0.000000 0.000000 0.000000 0.000000 0.000000 10.000000 
eye_left_bone 0.000000 0.000000 0.000000 0.000000 0.000000 0.000000 10.000000 
eye_right_bone 0.000000 0.000000 0.000000 0.000000 0.000000 0.000000 10.000000 
L_forearm 0.000000 0.000000 0.000000 0.000000 0.000000 0.000000 10.000000 
L_front_hand 0.000000 0.000000 0.000000 0.000000 0.000000 0.000000 10.000000 
L_weapon_bone 0.000000 0.000000 0.000000 0.000000 0.000000 0.000000 10.000000 
L_front_hand01_01 0.000000 0.000000 0.000000 0.000000 0.000000 0.000000 10.000000 
L_front_hand02_01 0.000000 0.000000 0.000000 0.000000 0.000000 0.000000 10.000000 
L_front_hand03_01 0.000000 0.000000 0.000000 0.000000 0.000000 0.000000 10.000000 
L_front_hand01_02 0.000000 0.000000 0.000000 0.000000 0.000000 0.000000 10.000000 
L_front_hand02_02 0.000000 0.000000 0.000000 0.000000 0.000000 0.000000 10.000000 
L_front_hand03_02 0.000000 0.000000 0.000000 0.000000 0.000000 0.000000 10.000000 
R_forearm 0.000000 0.000000 0.000000 0.000000 0.000000 0.000000 10.000000 
R_front_hand 0.000000 0.000000 0.000000 0.000000 0.000000 0.000000 10.000000 
R_weapon_bone 0.000000 0.000000 0.000000 0.000000 0.000000 0.000000 10.000000 
R_front_hand01_01 0.000000 0.000000 0.000000 0.000000 0.000000 0.000000 10.000000 
R_front_hand02_01 0.000000 0.000000 0.000000 0.000000 0.000000 0.000000 10.000000 
R_front_hand03_01 0.000000 0.000000 0.000000 0.000000 0.000000 0.000000 10.000000 
R_front_hand01_02 0.000000 0.000000 0.000000 0.000000 0.000000 0.000000 10.000000 
R_front_hand02_02 0.000000 0.000000 0.000000 0.000000 0.000000 0.000000 10.000000 
R_front_hand03_02 0.000000 0.000000 0.000000 0.000000 0.000000 0.000000 10.000000 
null_rope01_connect 0.000000 0.000000 0.000000 0.000000 0.000000 0.000000 10.000000 
Rope1_Seg01 0.000000 0.000000 0.000000 0.000000 0.000000 0.000000 10.000000 
Rope1_Seg02 0.000000 0.000000 0.000000 0.000000 0.000000 0.000000 10.000000 
Rope1_Seg03 0.000000 0.000000 0.000000 0.000000 0.000000 0.000000 10.000000 
Rope1_Seg04 0.000000 0.000000 0.000000 0.000000 0.000000 0.000000 10.000000 
Rope1_Seg05 0.000000 0.000000 0.000000 0.000000 0.000000 0.000000 10.000000 
Rope1_Seg06 0.000000 0.000000 0.000000 0.000000 0.000000 0.000000 10.000000 
Rope1_Seg07 0.000000 0.000000 0.000000 0.000000 0.000000 0.000000 10.000000 
Rope1_Seg09 0.000000 0.000000 0.000000 0.000000 0.000000 0.000000 10.000000 
L_mid_hand01 0.000000 0.000000 0.000000 0.000000 0.000000 0.000000 10.000000 
L_mid_hand02 0.000000 0.000000 0.000000 0.000000 0.000000 0.000000 10.000000 
L_mid_hand03 0.000000 0.000000 0.000000 0.000000 0.000000 0.000000 10.000000 
null_rope02_connect 0.000000 0.000000 0.000000 0.000000 0.000000 0.000000 10.000000 
Rope2_Seg01 0.000000 0.000000 0.000000 0.000000 0.000000 0.000000 10.000000 
Rope2_Seg02 0.000000 0.000000 0.000000 0.000000 0.000000 0.000000 10.000000 
Rope2_Seg03 0.000000 0.000000 0.000000 0.000000 0.000000 0.000000 10.000000 
Rope2_Seg04 0.000000 0.000000 0.000000 0.000000 0.000000 0.000000 10.000000 
Rope2_Seg05 0.000000 0.000000 0.000000 0.000000 0.000000 0.000000 10.000000 
Rope2_Seg06 0.000000 0.000000 0.000000 0.000000 0.000000 0.000000 10.000000 
Rope2_Seg07 0.000000 0.000000 0.000000 0.000000 0.000000 0.000000 10.000000 
Rope2_Seg09 0.000000 0.000000 0.000000 0.000000 0.000000 0.000000 10.000000 
R_mid_hand01 0.000000 0.000000 0.000000 0.000000 0.000000 0.000000 10.000000 
R_mid_hand02 0.000000 0.000000 0.000000 0.000000 0.000000 0.000000 10.000000 
R_mid_hand03 0.000000 0.000000 0.000000 0.000000 0.000000 0.000000 10.000000 
spine02 0.000000 0.000000 0.000000 0.000000 0.000000 0.000000 10.000000 
spine03 0.000000 0.000000 0.000000 0.000000 0.000000 0.000000 10.000000 
pelvis 0.000000 0.000000 0.000000 0.000000 0.000000 0.000000 10.000000 
null_rope03_connect 0.000000 0.000000 0.000000 0.000000 0.000000 0.000000 10.000000 
null_rope04_connect 0.000000 0.000000 0.000000 0.000000 0.000000 0.000000 10.000000 
Rope3_Seg01 0.000000 0.000000 0.000000 0.000000 0.000000 0.000000 10.000000 
Rope3_Seg02 0.000000 0.000000 0.000000 0.000000 0.000000 0.000000 10.000000 
Rope3_Seg03 0.000000 0.000000 0.000000 0.000000 0.000000 0.000000 10.000000 
Rope3_Seg04 0.000000 0.000000 0.000000 0.000000 0.000000 0.000000 10.000000 
Rope3_Seg05 0.000000 0.000000 0.000000 0.000000 0.000000 0.000000 10.000000 
Rope3_Seg06 0.000000 0.000000 0.000000 0.000000 0.000000 0.000000 10.000000 
Rope3_Seg07 0.000000 0.000000 0.000000 0.000000 0.000000 0.000000 10.000000 
Rope3_Seg08 0.000000 0.000000 0.000000 0.000000 0.000000 0.000000 10.000000 
Rope3_Seg09 0.000000 0.000000 0.000000 0.000000 0.000000 0.000000 10.000000 
R_rear_hand01 0.000000 0.000000 0.000000 0.000000 0.000000 0.000000 10.000000 
R_rear_hand02 0.000000 0.000000 0.000000 0.000000 0.000000 0.000000 10.000000 
R_rear_hand03 0.000000 0.000000 0.000000 0.000000 0.000000 0.000000 10.000000 
Rope4_Seg01 0.000000 0.000000 0.000000 0.000000 0.000000 0.000000 10.000000 
Rope4_Seg02 0.000000 0.000000 0.000000 0.000000 0.000000 0.000000 10.000000 
Rope4_Seg03 0.000000 0.000000 0.000000 0.000000 0.000000 0.000000 10.000000 
Rope4_Seg04 0.000000 0.000000 0.000000 0.000000 0.000000 0.000000 10.000000 
Rope4_Seg05 0.000000 0.000000 0.000000 0.000000 0.000000 0.000000 10.000000 
Rope4_Seg06 0.000000 0.000000 0.000000 0.000000 0.000000 0.000000 10.000000 
Rope4_Seg07 0.000000 0.000000 0.000000 0.000000 0.000000 0.000000 10.000000 
Rope4_Seg08 0.000000 0.000000 0.000000 0.000000 0.000000 0.000000 10.000000 
Rope4_Seg09 0.000000 0.000000 0.000000 0.000000 0.000000 0.000000 10.000000 
L_rear_hand01 0.000000 0.000000 0.000000 0.000000 0.000000 0.000000 10.000000 
L_rear_hand02 0.000000 0.000000 0.000000 0.000000 0.000000 0.000000 10.000000 
L_rear_hand03 0.000000 0.000000 0.000000 0.000000 0.000000 0.000000 10.000000 
#Beginning of Data. Separated by tabs
#Fr	Tx	Ty	Tz	Rx	Ry	Rz	SF
[MASTER]
35 0.000005 62.822109 0.000000 0.001660 0.001660 0.001660 62.822113
36 0.000005 62.822109 0.000000 0.001660 0.001660 0.001660 62.822113
[root]
35 -16.502295 -62.822117 1500.000000 -91.687737 -22.163967 -88.084686 1501.405640
36 -16.502295 -62.822117 1500.000000 -91.586189 -21.770126 -89.740158 1501.405640
[chest]
35 -84.512650 -34.090519 0.000000 -2.604606 -1.905218 -178.859955 91.129311
36 -84.512650 -34.090519 0.000000 -3.359412 -0.146224 -178.349686 91.129311
[L_mid_tent01]
35 27.299467 22.177572 -249.917999 -22.377224 42.355484 59.507233 252.380890
36 27.299463 22.177576 -249.917999 -16.312790 38.362282 57.860615 252.380890
[R_mid_tent01]
35 23.228794 24.509907 226.238495 174.731689 -44.472443 65.012260 228.744751
36 23.228794 24.509907 226.238495 -176.590164 -47.487015 55.721012 228.744751
[spine01]
35 -0.361383 -0.195265 0.000000 0.671753 0.432569 14.900920 0.410763
36 -0.361383 -0.195265 0.000000 0.758865 0.439251 15.208118 0.410763
[Bip01_Neck]
35 165.484543 71.581718 0.000119 175.896118 1.177290 24.871183 180.302734
36 165.484543 71.581718 0.000119 175.896118 1.177290 24.871183 180.302734
[L_humerus]
35 -13.983130 -135.272980 -120.471481 20.801407 65.267151 111.988831 181.680161
36 -13.983130 -135.272980 -120.471481 12.018615 66.610657 102.318008 181.680161
[R_humerus]
35 -13.983309 -135.273102 125.287651 81.642303 -73.280418 11.174232 184.909012
36 -13.983309 -135.273102 125.287651 25.564768 -77.534599 69.127754 184.909012
[weapon_bone]
35 235.964890 -300.705902 0.000000 0.000000 -89.951546 -128.212341 382.234833
36 235.964890 -300.705902 0.000000 0.000000 -89.951546 -128.212341 382.234833
[Bip01_Head]
35 261.355804 108.959641 -2.864209 2.248029 5.843377 -62.458344 283.173553
36 261.355804 108.959648 -2.864208 2.248029 5.843377 -62.458344 283.173553
[eye_left_bone]
35 -24.626970 125.451866 -64.772606 0.000000 -90.000000 -99.840431 143.318359
36 -24.626970 125.451866 -64.772606 0.000000 -90.000000 -99.840431 143.318359
[eye_right_bone]
35 -24.626970 125.451866 64.327362 0.000000 -89.960434 80.159386 143.117676
36 -24.626970 125.451866 64.327362 0.000000 -89.960434 80.159386 143.117676
[L_forearm]
35 322.776093 0.000000 -0.000119 0.000183 0.002340 -81.045212 322.776093
36 322.776093 0.000000 -0.000119 0.000183 0.002340 -81.045212 322.776093
[L_front_hand]
35 241.149185 -0.042021 -3.300071 -178.663147 -1.834274 -27.422415 241.171753
36 241.149185 -0.042021 -3.300071 -178.663147 -1.834274 -27.422415 241.171753
[L_weapon_bone]
35 156.183838 0.000000 0.000000 0.001660 0.001660 0.001660 156.183838
36 156.183838 0.000000 0.000000 0.001660 0.001660 0.001660 156.183838
[L_front_hand01_01]
35 86.095154 20.947098 -0.655860 -0.363570 -0.473241 75.385536 88.609184
36 86.095154 20.947098 -0.655860 -0.363570 -0.473241 75.385529 88.609184
[L_front_hand02_01]
35 86.935165 -11.437475 24.513514 154.403519 -59.888931 -61.371990 91.046425
36 86.935165 -11.437475 24.513514 154.403519 -59.888931 -61.371990 91.046425
[L_front_hand03_01]
35 86.637497 -14.123976 -20.424902 -153.913849 58.118122 -62.702866 90.126129
36 86.637497 -14.123976 -20.424902 -153.913879 58.118130 -62.702892 90.126129
[L_front_hand01_02]
35 71.020905 -0.000179 0.000030 0.000334 -0.002323 -106.379684 71.020905
36 71.020905 -0.000179 0.000030 0.000334 -0.002323 -106.379684 71.020905
[L_front_hand02_02]
35 71.020927 -0.000119 0.000060 0.000334 -0.002323 -106.379684 71.020927
36 71.020927 -0.000119 0.000060 0.000334 -0.002323 -106.379684 71.020927
[L_front_hand03_02]
35 71.020905 -0.000060 0.000060 0.000334 -0.002323 -106.379684 71.020905
36 71.020905 -0.000060 0.000060 0.000334 -0.002323 -106.379684 71.020905
[R_forearm]
35 322.776428 -0.000060 0.000030 0.204450 -0.055541 -75.410301 322.776428
36 322.776428 -0.000060 0.000030 0.205613 -0.049060 -77.088760 322.776428
[R_front_hand]
35 238.847015 -0.006795 2.210259 -1.215443 1.218626 -33.673859 238.857239
36 238.847015 -0.006795 2.210259 -1.292699 1.135585 -37.438496 238.857239
[R_weapon_bone]
35 155.664093 0.002503 -0.000030 0.002497 -0.002704 -31.830994 155.664078
36 155.664093 0.002503 -0.000030 0.002497 -0.002704 -31.830990 155.664078
[R_front_hand01_01]
35 87.624611 14.231146 22.918642 -154.633499 -59.950619 61.746044 91.683487
36 87.624611 14.231146 22.918642 -154.633499 -59.950619 61.746044 91.683487
[R_front_hand02_01]
35 89.356956 14.367283 -19.491137 154.595825 58.306164 63.741703 92.579636
36 89.356956 14.367283 -19.491137 154.595840 58.306175 63.741730 92.579636
[R_front_hand03_01]
35 87.286232 -22.307278 -0.143439 0.162155 -0.423168 -75.767921 90.091743
36 87.286232 -22.307278 -0.143439 0.162155 -0.423168 -75.767921 90.091743
[R_front_hand01_02]
35 71.020905 0.000060 0.000119 0.002323 -0.000334 106.381714 71.020905
36 71.020905 0.000060 0.000119 0.002323 -0.000334 106.381714 71.020905
[R_front_hand02_02]
35 71.020844 -0.000030 -0.000119 0.002323 -0.000334 106.381714 71.020836
36 71.020844 -0.000030 -0.000119 0.002323 -0.000334 106.381714 71.020836
[R_front_hand03_02]
35 71.020905 0.000000 0.000030 0.002323 -0.000334 106.381714 71.020905
36 71.020905 0.000000 0.000030 0.002323 -0.000334 106.381714 71.020905
[null_rope01_connect]
35 328.732483 0.000000 -0.000238 -160.350250 -42.093044 -154.973495 328.732483
36 328.732483 0.000000 -0.000238 -151.795563 -47.356808 -159.842987 328.732483
[Rope1_Seg01]
35 0.000000 0.000000 0.000000 6.478933 1.530369 -97.470238 0.000000
36 0.000000 0.000000 0.000000 10.190170 8.318162 -106.028206 0.000000
[Rope1_Seg02]
35 139.999863 -0.000179 0.000000 -0.882683 0.179594 0.628431 139.999863
36 139.999863 -0.000179 0.000000 -2.889588 -0.549893 2.459709 139.999863
[Rope1_Seg03]
35 139.999924 0.000060 -0.000060 -1.104707 0.217240 0.815685 139.999924
36 139.999924 0.000060 -0.000060 -3.056825 -0.892342 3.222059 139.999924
[Rope1_Seg04]
35 139.999924 -0.000060 -0.000119 -1.356801 0.173373 1.137265 139.999924
36 139.999924 -0.000060 -0.000119 -2.702162 -2.004879 4.562565 139.999924
[Rope1_Seg05]
35 139.999832 0.000119 -0.000060 -1.534006 -0.401478 2.040102 139.999832
36 139.999832 0.000119 -0.000060 -2.309307 -4.927769 7.910339 139.999832
[Rope1_Seg06]
35 139.999954 0.000119 -0.000060 -4.248533 2.140895 2.154892 139.999954
36 139.999954 0.000119 -0.000060 -7.044540 2.610030 7.275751 139.999954
[Rope1_Seg07]
35 139.999985 0.000060 0.000000 -4.695188 3.250108 1.225260 139.999985
36 139.999985 0.000060 0.000000 -5.911639 4.404678 4.062005 139.999985
[Rope1_Seg09]
35 121.602913 0.000119 -0.000089 -89.793175 -1.359789 0.847147 121.602913
36 121.602913 0.000119 -0.000089 -89.793175 -1.359789 0.847147 121.602913
[L_mid_hand01]
35 103.859421 1.038730 8.195221 105.620987 -22.988335 -6.761933 104.187431
36 103.859421 1.038730 8.195221 105.620987 -22.988335 -6.761933 104.187431
[L_mid_hand02]
35 105.572853 -4.139662 -10.864139 -139.491974 20.327143 -21.528740 106.211075
36 105.572853 -4.139662 -10.864139 -139.491974 20.327143 -21.528740 106.211075
[L_mid_hand03]
35 104.641464 17.579376 -3.913581 -17.354424 7.254999 25.905664 106.179977
36 104.641464 17.579376 -3.913581 -17.354424 7.254999 25.905664 106.179977
[null_rope02_connect]
35 328.732849 0.000179 -0.000119 -123.304832 45.106094 8.191575 328.732849
36 328.732849 0.000179 -0.000119 -127.676483 43.585823 -1.813028 328.732849
[Rope2_Seg01]
35 -0.000040 0.000152 0.000008 149.073334 32.459560 -61.088974 0.000157
36 -0.000039 0.000152 0.000004 112.305054 19.295086 -62.592182 0.000157
[Rope2_Seg02]
35 139.999741 -0.000060 -0.000119 -14.994649 -1.081420 8.517221 139.999756
36 139.999741 -0.000060 -0.000119 -7.487453 -5.871704 6.557902 139.999756
[Rope2_Seg03]
35 140.000107 0.000030 0.000000 -9.512151 -2.553483 7.541010 140.000107
36 140.000107 0.000030 0.000000 -3.851357 -5.627694 5.161902 140.000107
[Rope2_Seg04]
35 139.999802 0.000000 -0.000060 -6.066353 -2.033716 5.758584 139.999802
36 139.999802 0.000000 -0.000060 -3.276785 -3.787465 4.482317 139.999802
[Rope2_Seg05]
35 139.999985 -0.000060 0.000119 -3.419826 -9.519070 7.510303 139.999985
36 139.999985 -0.000060 0.000119 -0.102221 -5.305965 2.348382 139.999985
[Rope2_Seg06]
35 139.999893 -0.000030 -0.000119 -2.254269 -15.644011 9.112750 139.999893
36 139.999893 -0.000030 -0.000119 1.902829 -8.367016 0.993248 139.999893
[Rope2_Seg07]
35 139.999893 0.000060 -0.000060 -1.053217 -10.416337 6.328536 139.999893
36 139.999893 0.000060 -0.000060 1.143856 -8.080441 1.309180 139.999893
[Rope2_Seg09]
35 121.338966 0.000089 -0.000060 33.793236 -1.359788 -0.847141 121.338966
36 121.338966 0.000089 -0.000060 33.793236 -1.359788 -0.847141 121.338966
[R_mid_hand01]
35 104.680779 11.144459 -10.335981 -44.070736 19.764444 21.986286 105.778534
36 104.680779 11.144459 -10.335981 -44.070736 19.764444 21.986286 105.778534
[R_mid_hand02]
35 104.070427 2.443552 8.231699 74.148849 -24.768806 7.320621 104.424065
36 104.070427 2.443552 8.231699 74.148849 -24.768806 7.320621 104.424065
[R_mid_hand03]
35 106.028137 -11.221827 -5.996406 -166.566208 8.416404 -28.789036 106.788818
36 106.028137 -11.221827 -5.996406 -166.566208 8.416404 -28.789036 106.788818
[spine02]
35 129.756927 0.001550 0.000119 -0.219336 -4.040023 -4.755173 129.756927
36 129.756927 0.001550 0.000119 -0.233901 -4.047317 -4.544150 129.756927
[spine03]
35 79.115608 -0.000036 0.000000 1.907030 -2.965995 23.921795 79.115608
36 79.115608 -0.000018 0.000000 1.907030 -2.965995 23.921795 79.115608
[pelvis]
35 169.435242 0.051022 0.000000 -4.328359 1.076987 -2.735286 169.435257
36 169.435242 0.051022 0.000000 -1.248150 0.406952 -2.302817 169.435257
[null_rope03_connect]
35 -1.257226 -2.466202 137.391083 118.971199 -82.032623 -38.098377 137.418976
36 -1.257226 -2.466202 137.391083 94.663315 -84.441696 -15.283543 137.418976
[null_rope04_connect]
35 -1.259640 -2.480268 -137.844437 118.971199 -82.032623 -38.098377 137.872513
36 -1.259640 -2.480268 -137.844437 94.663315 -84.441696 -15.283543 137.872513
[Rope3_Seg01]
35 0.000000 0.000000 0.000000 -126.855057 35.274757 -65.877701 0.000000
36 0.000000 0.000000 0.000000 -127.261070 38.601780 -66.481476 0.000000
[Rope3_Seg02]
35 139.999924 -0.000119 0.000060 0.058597 -0.664681 -2.991190 139.999924
36 139.999924 -0.000119 0.000060 0.087777 0.937704 -1.565490 139.999924
[Rope3_Seg03]
35 139.999924 -0.000119 0.000119 -0.121144 -1.616285 -7.093919 139.999924
36 139.999924 -0.000119 0.000119 0.031520 1.535983 -2.570096 139.999924
[Rope3_Seg04]
35 139.999924 0.000119 0.000000 -2.048180 -4.300812 -20.318747 139.999924
36 139.999924 0.000119 0.000000 -1.432653 2.548765 -14.833920 139.999924
[Rope3_Seg05]
35 139.999924 -0.000238 0.000060 5.697631 8.287079 42.912167 139.999924
36 139.999924 -0.000238 0.000060 1.846100 10.078281 18.918139 139.999924
[Rope3_Seg06]
35 139.999893 -0.000119 -0.000060 -0.617148 3.166165 12.129067 139.999893
36 139.999893 -0.000119 -0.000060 -0.320911 3.412584 12.007829 139.999893
[Rope3_Seg07]
35 139.999771 0.000060 -0.000119 -0.157668 0.972132 3.967706 139.999771
36 139.999771 0.000060 -0.000119 0.121336 1.640341 4.208590 139.999771
[Rope3_Seg08]
35 139.999985 -0.000060 0.000000 0.491393 0.055070 0.234374 139.999985
36 139.999985 -0.000060 0.000000 0.271053 0.876884 2.234443 139.999985
[Rope3_Seg09]
35 90.185997 -0.000179 -0.000060 89.793228 -1.359877 -0.847183 90.185997
36 90.185997 -0.000179 -0.000060 89.793228 -1.359877 -0.847183 90.185997
[R_rear_hand01]
35 103.366196 -6.073594 -10.757982 -160.090088 14.865479 -24.717995 104.101845
36 103.366196 -6.073594 -10.757982 -160.090088 14.865479 -24.717995 104.101845
[R_rear_hand02]
35 100.509819 12.039542 -7.992327 -35.711578 16.148796 24.170401 101.543350
36 100.509819 12.039542 -7.992327 -35.711582 16.148796 24.170401 101.543350
[R_rear_hand03]
35 101.539970 5.215704 5.435467 83.699936 -25.497597 6.583542 101.819031
36 101.539970 5.215704 5.435467 83.699936 -25.497597 6.583542 101.819031
[Rope4_Seg01]
35 0.000008 -0.000040 -0.000008 45.115536 32.299740 -109.923561 0.000042
36 0.000009 -0.000039 -0.000004 49.412167 39.256397 -103.505157 0.000040
[Rope4_Seg02]
35 139.999985 0.000060 0.000119 0.124644 -1.885113 -2.963560 139.999985
36 139.999985 0.000060 0.000119 0.001276 -3.787651 -1.185988 139.999985
[Rope4_Seg03]
35 139.999924 0.000000 -0.000238 0.035202 -2.461727 -3.863263 139.999924
36 139.999924 0.000000 -0.000238 0.078586 -4.553923 -1.436854 139.999924
[Rope4_Seg04]
35 139.999985 0.000000 0.000119 -0.390978 -5.763404 -9.253858 139.999985
36 139.999985 0.000000 0.000119 0.500705 -9.815202 -5.056442 139.999985
[Rope4_Seg05]
35 139.999802 -0.000060 -0.000119 -0.137771 -1.043855 -1.525381 139.999802
36 139.999802 -0.000060 -0.000119 0.458173 -3.462080 0.284708 139.999802
[Rope4_Seg06]
35 139.999924 0.000000 0.000060 2.957024 9.808575 17.340347 139.999924
36 139.999924 0.000000 0.000060 1.794617 11.532342 11.776126 139.999924
[Rope4_Seg07]
35 139.999802 0.000000 0.000000 -0.189475 10.672441 17.994545 139.999802
36 139.999802 0.000000 0.000000 0.203113 8.271873 8.751919 139.999802
[Rope4_Seg08]
35 139.999924 0.000000 0.000119 -3.617159 5.126894 9.131913 139.999924
36 139.999924 0.000000 0.000119 -2.060220 4.855807 5.486251 139.999924
[Rope4_Seg09]
35 90.185791 0.000060 0.000060 -135.617828 2.228885 0.850567 90.185791
36 90.185791 0.000060 0.000060 -135.617828 2.228885 0.850567 90.185791
[L_rear_hand01]
35 101.696655 -8.392275 -7.654577 -36.242058 -14.765300 157.809067 102.329041
36 101.696655 -8.392275 -7.654577 -36.242058 -14.765300 157.809067 102.329041
[L_rear_hand02]
35 102.726799 -1.568258 5.773216 83.814369 23.151869 173.698151 102.900848
36 102.726799 -1.568258 5.773216 83.814362 23.151863 173.698151 102.900848
[L_rear_hand03]
35 104.552910 9.721220 -10.420293 -159.518845 -14.052428 -157.569275 105.519653
36 104.552910 9.721220 -10.420293 -159.518845 -14.052428 -157.569275 105.519653
